# xmcd CD database file
#
# Track frame offsets:
#	150
#	16555
#	32347
#	44850
#	56547
#	79947
#	93927
#	108717
#	127082
#	136250
#	150317
#	167332
#	184692
#
# Disc length: 2581 seconds
#
# Revision: 0
# Processed by: cddbd v1.5PL3 Copyright (c) Steve Scherf et al.
# Submitted via: CDex 1.51
#
DISCID=9b0a130d
DTITLE=Diamond Accordion Band - 25 Country Hits
DYEAR=1992
DGENRE=Country
TTITLE0=Stand By Your Man
TTITLE1=Banks Of The Ohio - Fraulein;Jealous Heart
TTITLE2=Folsom Prison Blues;Istill Miss Someone;I walk The Line
TTITLE3=ILove you Because
TTITLE4=He'll Have To Go;Tennessee Waltz;Mexicali Rose;Ireally Dont Want To Know
TTITLE5=Chrystal Chandeliers
TTITLE6=The Blackboard Of My Heart;I Cant Help It - Please Help Me I'm falling
TTITLE7=Does My Ring Hurt Your Finger
TTITLE8=Tie A Yellow Ribbon Round The OLd Oak Tree
TTITLE9=It Keeps Right On A Hurting - China Doll
TTITLE10=Nobody's Child - The Wild Side Of Life
TTITLE11=Your Cheatin' Heart - Send Me The Pillow You Dream On
TTITLE12=Blanket On The Ground
EXTD=YEAR: 1992
EXTT0=
EXTT1=
EXTT2=
EXTT3=
EXTT4=
EXTT5=
EXTT6=
EXTT7=
EXTT8=
EXTT9=
EXTT10=
EXTT11=
EXTT12=
PLAYORDER=
